<svg width="238" height="88" viewBox="0 0 238 88" fill="none" xmlns="http://www.w3.org/2000/svg">
<g clip-path="url(#clip0_120_34)">
<path fill-rule="evenodd" clip-rule="evenodd" d="M80.2756 24.948C66.8256 24.948 55.9224 35.8839 55.9224 49.3733C55.9224 62.8633 66.8256 73.7987 80.2756 73.7987C93.7254 73.7987 104.628 62.8633 104.628 49.3733C104.628 35.8839 93.7254 24.948 80.2756 24.948ZM80.2756 58.4735C85.2856 58.4735 89.3478 54.3997 89.3478 49.3743C89.3478 44.3488 85.2856 40.2751 80.2756 40.2751C75.2649 40.2751 71.2032 44.3488 71.2032 49.3743C71.2032 54.3997 75.2649 58.4735 80.2756 58.4735Z" fill="#FFE600"/>
<path fill-rule="evenodd" clip-rule="evenodd" d="M46.9021 14.08C33.9503 14.08 23.4512 24.6106 23.4512 37.6009C23.4512 50.591 33.9503 61.1214 46.9021 61.1214C59.8541 61.1214 70.3534 50.591 70.3534 37.6009C70.3534 24.6106 59.8541 14.08 46.9021 14.08ZM46.9025 46.7746C51.9749 46.7746 56.0868 42.6676 56.0868 37.6013C56.0868 32.535 51.9749 28.428 46.9025 28.428C41.8301 28.428 37.7183 32.535 37.7183 37.6013C37.7183 42.6676 41.8301 46.7746 46.9025 46.7746Z" fill="#FF0099"/>
<path fill-rule="evenodd" clip-rule="evenodd" d="M18.0393 37.6111C8.07645 37.6111 0 45.7117 0 55.7041C0 65.6966 8.07645 73.7967 18.0393 73.7967C28.002 73.7967 36.0785 65.6966 36.0785 55.7041C36.0785 45.7117 28.002 37.6111 18.0393 37.6111ZM18.0399 63.8898C22.5472 63.8898 26.2012 60.225 26.2012 55.7041C26.2012 51.1835 22.5472 47.5185 18.0399 47.5185C13.5325 47.5185 9.87832 51.1835 9.87832 55.7041C9.87832 60.225 13.5325 63.8898 18.0399 63.8898Z" fill="#0085FF"/>
<path d="M155.747 34.3649H143.255V73.5504H132.974V34.3649H120.464V25.9845H155.747V34.3649Z" fill="#151515"/>
<path d="M168.995 44.2779H170.277L185.844 25.9368H198.924L178.808 49.0917L198.785 73.5506H185.811L170.242 53.8414H168.995V73.5506H159.533V25.9368H168.995V44.2779Z" fill="#151515"/>
<path d="M217.622 25.2205C230.063 25.2208 236.828 33.6322 237.91 41.862H227.9C226.818 38.4256 223.933 34.357 217.622 34.3568C210.318 34.3568 205.808 40.5057 205.808 49.3687C205.808 58.4128 210.496 64.3819 217.71 64.3822C224.293 64.3822 227.089 60.2228 227.992 56.6952H238C237.007 65.7394 229.434 73.5182 217.622 73.5184C204.095 73.5184 195.347 63.3875 195.347 49.3687C195.347 35.5312 204.005 25.2205 217.622 25.2205Z" fill="#151515"/>
<path d="M114.519 59.9016C118.216 59.9016 121.193 62.7959 121.193 66.5043C121.193 70.3023 118.216 73.1961 114.519 73.1961C110.822 73.1958 107.847 70.3022 107.847 66.5043C107.847 62.7959 110.822 59.902 114.519 59.9016Z" fill="#151515"/>
</g>
<defs>
<clipPath id="clip0_120_34">
<rect width="238" height="88" fill="white"/>
</clipPath>
</defs>
</svg>
